<svg id="Layer_1" data-name="Layer 1" xmlns="http://www.w3.org/2000/svg" viewBox="0 0 918.55 148.01">
    <path d="M505.58,398.11h50.28c50.07,0,76.19,28.51,76.19,71.17s-26.12,71.18-76.19,71.18H505.58Zm50.28,109.7c28.52,0,40.49-14.8,40.49-38.53s-12-38.52-40.49-38.52h-15v77.05Z"
          transform="translate(-505.58 -395.28)" style="fill:#fff"/>
    <path d="M654,398.11h57.68c37.66,0,54.42,20.46,54.42,48.75,0,20-8.49,36.35-26.77,44l32,49.63H729.56l-25.25-44.62h-15v44.62H654Zm58.12,65.08c14.15,0,18.28-7,18.28-16.33s-4.13-16.1-18.28-16.1H689.29v32.43Z"
          transform="translate(-505.58 -395.28)" style="fill:#fff"/>
    <path d="M781.58,469.28c0-42.66,31.35-74,75.75-74s75.75,31.34,75.75,74-31.35,74-75.75,74S781.58,512,781.58,469.28Zm115.8,0c0-23.94-15.89-41.35-40-41.35s-40.05,17.41-40.05,41.35,15.89,41.36,40.05,41.36S897.38,493.23,897.38,469.28Z"
          transform="translate(-505.58 -395.28)" style="fill:#fff"/>
    <path d="M951.8,450.35c0-38.1,22.2-55.07,50.93-55.07,17.2,0,30.91,6.74,39.4,19.59,8.49-12.85,22.2-19.59,39.4-19.59,28.73,0,50.93,17,50.93,55.07v90.11H1097.2V450.35c0-16.55-8-22.42-18.72-22.42-10.45,0-18.72,5.87-18.72,22.42v90.11H1024.5V450.35c0-16.55-8.27-22.42-18.72-22.42-10.67,0-18.72,5.87-18.72,22.42v90.11H951.8Z"
          transform="translate(-505.58 -395.28)" style="fill:#fff"/>
    <path d="M1151.18,469.28c0-42.66,31.34-74,75.75-74s75.75,31.34,75.75,74-31.35,74-75.75,74S1151.18,512,1151.18,469.28Zm115.8,0c0-23.94-15.89-41.35-40-41.35s-40,17.41-40,41.35,15.89,41.36,40,41.36S1267,493.23,1267,469.28Z"
          transform="translate(-505.58 -395.28)" style="fill:#fff"/>
    <path d="M1317,498.45h34.39c0,8.92,5.45,14.58,19.16,14.58s19.15-5.66,19.15-14.58c0-9.36-10.88-11.54-23.94-13.93-20.24-3.7-46.15-8.49-46.15-43.1,0-27,20.47-46.14,51.16-46.14,29.82,0,50.06,18.06,51.15,45.05h-33.09c-.21-8.27-5.44-14.8-17.63-14.8-12.62,0-17.63,7.18-17.63,14.59,0,9.36,10.88,11.53,24.16,13.93,20.46,3.7,46.36,8.49,46.36,43.09,0,28.3-21.33,46.15-53.54,46.15C1338.81,543.29,1317.7,526.09,1317,498.45Z"
          transform="translate(-505.58 -395.28)" style="fill:#fff"/>
</svg>
